<svg width="20" height="20" fill="none" style="-webkit-print-color-adjust:exact" version="1.1" viewBox="-0 -0 20 20" xmlns="http://www.w3.org/2000/svg"><g rx="0" ry="0" fill="#000"><g class="fills"><path rx="0" ry="0" d="m10.833 14.167v1.666h0.834c0.46 0 0.833 0.373 0.833 0.834h5.833v1.666h-5.833c0 0.461-0.373 0.834-0.833 0.834h-3.334c-0.46 0-0.833-0.373-0.833-0.834h-5.833v-1.666h5.833c0-0.461 0.373-0.834 0.833-0.834h0.834v-1.666h-5v-1.25c0-1.609 2.608-2.917 5.833-2.917s5.833 1.308 5.833 2.917v1.25h-5zm-0.833-11.667c1.611 0 2.917 1.306 2.917 2.917 0 1.61-1.306 2.916-2.917 2.916s-2.917-1.306-2.917-2.916c0-1.611 1.306-2.917 2.917-2.917z" fill="#007bbd"/></g></g></svg>
