<svg xmlns:xlink="http://www.w3.org/1999/xlink" width="20" xmlns="http://www.w3.org/2000/svg" height="20" id="screenshot-db15cf86-6f9e-8025-8002-bbab9ed6fdca" viewBox="-0 -0 20 20" style="-webkit-print-color-adjust: exact;" fill="none" version="1.1"><g id="shape-db15cf86-6f9e-8025-8002-bbab9ed6fdca" rx="0" ry="0" style="fill: rgb(0, 0, 0);"><g id="shape-db15cf86-6f9e-8025-8002-bbab9ed6fdcc"><g class="fills" id="fills-db15cf86-6f9e-8025-8002-bbab9ed6fdcc"><path rx="0" ry="0" d="M10.833,14.167L10.833,15.833L11.667,15.833C12.127,15.833,12.500,16.206,12.500,16.667L18.333,16.667L18.333,18.333L12.500,18.333C12.500,18.794,12.127,19.167,11.667,19.167L8.333,19.167C7.873,19.167,7.500,18.794,7.500,18.333L1.667,18.333L1.667,16.667L7.500,16.667C7.500,16.206,7.873,15.833,8.333,15.833L9.167,15.833L9.167,14.167L4.167,14.167L4.167,12.917C4.167,11.308,6.775,10.000,10.000,10.000C13.225,10.000,15.833,11.308,15.833,12.917L15.833,14.167L10.833,14.167ZM10.000,2.500C11.611,2.500,12.917,3.806,12.917,5.417C12.917,7.027,11.611,8.333,10.000,8.333C8.389,8.333,7.083,7.027,7.083,5.417C7.083,3.806,8.389,2.500,10.000,2.500ZZ" style="fill: rgb(255, 255, 255); fill-opacity: 1;"/></g></g></g></svg>
