<svg width="15" height="15" fill="none" style="-webkit-print-color-adjust:exact" version="1.1" viewBox="-7571.5 3236.5 15 15" xmlns="http://www.w3.org/2000/svg"><g class="fills"><path rx="0" ry="0" d="m-7569.8 3236.5h11.666c0.921 0 1.667 0.746 1.667 1.667v11.666c0 0.921-0.746 1.667-1.667 1.667h-11.666c-0.921 0-1.667-0.746-1.667-1.667v-11.666c0-0.921 0.746-1.667 1.667-1.667zm1.666 3.333v1.667h1.667v-1.667h-1.667zm3.334 0v1.667h1.666v-1.667h-1.666zm3.333 0v1.667h1.667v-1.667h-1.667zm-6.667 3.334v1.666h1.667v-1.666h-1.667zm3.334 0v1.666h1.666v-1.666h-1.666zm3.333 0v1.666h1.667v-1.666h-1.667zm-6.667 3.333v1.667h1.667v-1.667h-1.667zm3.334 0v1.667h1.666v-1.667h-1.666zm3.333 0v1.667h1.667v-1.667h-1.667z" fill="#fff"/></g></svg>
