<svg xmlns="http://www.w3.org/2000/svg" xml:space="preserve" style="fill-rule:evenodd;clip-rule:evenodd;stroke-linejoin:round;stroke-miterlimit:2" viewBox="0 0 15 15" height="15" width="15"><path d="M-7569.8 3236.5h11.67c.92 0 1.66.75 1.66 1.67v11.66c0 .92-.74 1.67-1.66 1.67h-11.67c-.92 0-1.67-.75-1.67-1.67v-11.66c0-.92.75-1.67 1.67-1.67Zm9.52 2.5a1.25 1.25 0 0 0 0 2.5c.68 0 1.25-.56 1.25-1.25s-.57-1.25-1.25-1.25Zm0 3.75a1.25 1.25 0 0 0 0 2.5c.68 0 1.25-.56 1.25-1.25s-.57-1.25-1.25-1.25Zm0 3.75a1.25 1.25 0 0 0 0 2.5c.68 0 1.25-.56 1.25-1.25s-.57-1.25-1.25-1.25Zm-7.5-3.75a1.25 1.25 0 0 0 0 2.5c.68 0 1.25-.56 1.25-1.25s-.57-1.25-1.25-1.25Zm0-3.75a1.25 1.25 0 0 0 0 2.5c.68 0 1.25-.56 1.25-1.25s-.57-1.25-1.25-1.25Zm3.75 3.75a1.25 1.25 0 0 0 0 2.5c.68 0 1.25-.56 1.25-1.25s-.57-1.25-1.25-1.25Zm-3.75 3.75a1.25 1.25 0 0 0 0 2.5c.68 0 1.25-.56 1.25-1.25s-.57-1.25-1.25-1.25Zm3.75-7.5a1.25 1.25 0 0 0 0 2.5c.68 0 1.25-.56 1.25-1.25s-.57-1.25-1.25-1.25Zm0 7.5a1.25 1.25 0 0 0 0 2.5c.68 0 1.25-.56 1.25-1.25s-.57-1.25-1.25-1.25Z" style="fill:#fff" transform="translate(7571.5 -3236.5)"/></svg>