<svg xmlns:xlink="http://www.w3.org/1999/xlink" width="15" xmlns="http://www.w3.org/2000/svg" height="15" id="screenshot-db15cf86-6f9e-8025-8002-bbab9ed6fe0a" viewBox="-7571.5 3236.5 15 15" style="-webkit-print-color-adjust: exact;" fill="none" version="1.1"><g id="shape-db15cf86-6f9e-8025-8002-bbab9ed6fe0a"><g class="fills" id="fills-db15cf86-6f9e-8025-8002-bbab9ed6fe0a"><path rx="0" ry="0" d="M-7569.833,3236.500L-7558.167,3236.500C-7557.246,3236.500,-7556.500,3237.246,-7556.500,3238.167L-7556.500,3249.833C-7556.500,3250.754,-7557.246,3251.500,-7558.167,3251.500L-7569.833,3251.500C-7570.754,3251.500,-7571.500,3250.754,-7571.500,3249.833L-7571.500,3238.167C-7571.500,3237.246,-7570.754,3236.500,-7569.833,3236.500ZM-7568.167,3239.833L-7568.167,3241.500L-7566.500,3241.500L-7566.500,3239.833L-7568.167,3239.833ZM-7564.833,3239.833L-7564.833,3241.500L-7563.167,3241.500L-7563.167,3239.833L-7564.833,3239.833ZM-7561.500,3239.833L-7561.500,3241.500L-7559.833,3241.500L-7559.833,3239.833L-7561.500,3239.833ZM-7568.167,3243.167L-7568.167,3244.833L-7566.500,3244.833L-7566.500,3243.167L-7568.167,3243.167ZM-7564.833,3243.167L-7564.833,3244.833L-7563.167,3244.833L-7563.167,3243.167L-7564.833,3243.167ZM-7561.500,3243.167L-7561.500,3244.833L-7559.833,3244.833L-7559.833,3243.167L-7561.500,3243.167ZM-7568.167,3246.500L-7568.167,3248.167L-7566.500,3248.167L-7566.500,3246.500L-7568.167,3246.500ZM-7564.833,3246.500L-7564.833,3248.167L-7563.167,3248.167L-7563.167,3246.500L-7564.833,3246.500ZM-7561.500,3246.500L-7561.500,3248.167L-7559.833,3248.167L-7559.833,3246.500L-7561.500,3246.500ZZ" style="fill: rgb(0, 123, 189); fill-opacity: 1;"/></g></g></svg>