<svg width="20" height="20" fill="none" style="-webkit-print-color-adjust:exact" version="1.1" viewBox="-0 0 20 20" xmlns="http://www.w3.org/2000/svg"><g rx="0" ry="0" fill="#000"><g class="fills"><path rx="0" ry="0" d="m15.833 2.5h-3.483c-0.35-0.967-1.267-1.667-2.35-1.667s-2 0.7-2.35 1.667h-3.483c-0.921 0-1.667 0.746-1.667 1.667v11.666c0 0.921 0.746 1.667 1.667 1.667h11.666c0.921 0 1.667-0.746 1.667-1.667v-11.666c0-0.921-0.746-1.667-1.667-1.667zm-5.833 0c0.46 0 0.833 0.373 0.833 0.833 0 0.461-0.373 0.834-0.833 0.834s-0.833-0.373-0.833-0.834c0-0.46 0.373-0.833 0.833-0.833zm2.5 13.333-3.333-3.333h2.5v-5.833h1.666v5.833h2.5l-3.333 3.333zm-4.167-2.5h-1.666v-5.833h-2.5l3.333-3.333 3.333 3.333h-2.5v5.833z" fill="#007bbd"/></g></g></svg>
