<svg xmlns:xlink="http://www.w3.org/1999/xlink" width="20" xmlns="http://www.w3.org/2000/svg" height="20" id="screenshot-db15cf86-6f9e-8025-8002-bbab9ed6fdf2" viewBox="-0 0 20 20" style="-webkit-print-color-adjust: exact;" fill="none" version="1.1"><g id="shape-db15cf86-6f9e-8025-8002-bbab9ed6fdf2" rx="0" ry="0" style="fill: rgb(0, 0, 0);"><g id="shape-db15cf86-6f9e-8025-8002-bbab9ed6fdf4"><g class="fills" id="fills-db15cf86-6f9e-8025-8002-bbab9ed6fdf4"><path rx="0" ry="0" d="M5.833,5.000L14.167,5.000C16.928,5.000,19.167,7.239,19.167,10.000C19.167,12.761,16.928,15.000,14.167,15.000C12.683,15.000,11.358,14.358,10.442,13.333L9.558,13.333C8.642,14.358,7.317,15.000,5.833,15.000C3.072,15.000,0.833,12.761,0.833,10.000C0.833,7.239,3.072,5.000,5.833,5.000ZM5.000,7.500L5.000,9.167L3.333,9.167L3.333,10.833L5.000,10.833L5.000,12.500L6.667,12.500L6.667,10.833L8.333,10.833L8.333,9.167L6.667,9.167L6.667,7.500L5.000,7.500ZM12.917,10.000C12.226,10.000,11.667,10.560,11.667,11.250C11.667,11.940,12.226,12.500,12.917,12.500C13.607,12.500,14.167,11.940,14.167,11.250C14.167,10.560,13.607,10.000,12.917,10.000ZM15.417,7.500C14.726,7.500,14.167,8.060,14.167,8.750C14.167,9.440,14.726,10.000,15.417,10.000C16.107,10.000,16.667,9.440,16.667,8.750C16.667,8.060,16.107,7.500,15.417,7.500ZZ" style="fill: rgb(0, 123, 189); fill-opacity: 1;"/></g></g></g></svg>