<svg width="20" height="20" fill="none" style="-webkit-print-color-adjust:exact" version="1.1" viewBox="-0 0 20 20" xmlns="http://www.w3.org/2000/svg"><g rx="0" ry="0" fill="#000"><g class="fills"><path rx="0" ry="0" d="m5.833 5h8.334c2.761 0 5 2.239 5 5s-2.239 5-5 5c-1.484 0-2.809-0.642-3.725-1.667h-0.884c-0.916 1.025-2.241 1.667-3.725 1.667-2.761 0-5-2.239-5-5s2.239-5 5-5zm-0.833 2.5v1.667h-1.667v1.666h1.667v1.667h1.667v-1.667h1.666v-1.666h-1.666v-1.667h-1.667zm7.917 2.5c-0.691 0-1.25 0.56-1.25 1.25s0.559 1.25 1.25 1.25c0.69 0 1.25-0.56 1.25-1.25s-0.56-1.25-1.25-1.25zm2.5-2.5c-0.691 0-1.25 0.56-1.25 1.25s0.559 1.25 1.25 1.25c0.69 0 1.25-0.56 1.25-1.25s-0.56-1.25-1.25-1.25z" fill="#007bbd"/></g></g></svg>
