<svg width="20" height="20" fill="none" style="-webkit-print-color-adjust:exact" version="1.1" viewBox="-0 0 20 20" xmlns="http://www.w3.org/2000/svg"><g rx="0" ry="0" fill="#000"><g class="fills"><path rx="0" ry="0" d="m7.917 2.5c2.991 0 5.416 2.425 5.416 5.417 0 1.341-0.491 2.575-1.3 3.525l0.225 0.225h0.659l4.166 4.166-1.25 1.25-4.166-4.166v-0.659l-0.225-0.225c-0.95 0.809-2.184 1.3-3.525 1.3-2.992 0-5.417-2.425-5.417-5.416 0-2.992 2.425-5.417 5.417-5.417zm0 1.667c-2.084 0-3.75 1.666-3.75 3.75 0 2.083 1.666 3.75 3.75 3.75 2.083 0 3.75-1.667 3.75-3.75 0-2.084-1.667-3.75-3.75-3.75z" fill="#fff"/></g></g></svg>
