<svg width="20" height="20" fill="none" style="-webkit-print-color-adjust:exact" version="1.1" viewBox="-0 0 20 20" xmlns="http://www.w3.org/2000/svg"><g rx="0" ry="0" fill="#000"><g class="fills"><path rx="0" ry="0" d="m2.5 3.333v10h15v-10h-15zm0-1.666h15c0.917 0 1.667 0.741 1.667 1.666v10c0 0.442-0.175 0.867-0.492 1.175-0.308 0.317-0.733 0.492-1.175 0.492h-5.833v1.667h1.666v1.666h-6.666v-1.666h1.666v-1.667h-5.833c-0.442 0-0.867-0.175-1.175-0.492-0.317-0.308-0.492-0.733-0.492-1.175v-10c0-0.925 0.742-1.666 1.667-1.666zm6.533 5.775c0.259-0.25 0.609-0.4 0.967-0.4 0.358 8e-3 0.708 0.15 0.967 0.408 0.25 0.25 0.4 0.6 0.4 0.958 0 0.367-0.15 0.709-0.4 0.967-0.259 0.258-0.609 0.4-0.967 0.4s-0.708-0.15-0.967-0.4c-0.25-0.258-0.4-0.6-0.4-0.967 0-0.358 0.15-0.708 0.4-0.966zm-0.641 2.558c0.425 0.442 1.008 0.683 1.608 0.683s1.183-0.241 1.608-0.683c0.425-0.417 0.667-0.992 0.667-1.592s-0.242-1.183-0.667-1.608-1.008-0.667-1.608-0.667-1.183 0.242-1.608 0.667-0.667 1.008-0.667 1.608 0.242 1.175 0.667 1.592zm-3.392-1.592c0.783-1.991 2.725-3.408 5-3.408s4.217 1.417 5 3.408c-0.783 2.009-2.725 3.409-5 3.409s-4.217-1.4-5-3.409z" fill="#007bbd"/></g></g></svg>
