<svg xmlns:xlink="http://www.w3.org/1999/xlink" width="20" xmlns="http://www.w3.org/2000/svg" height="20" id="screenshot-db15cf86-6f9e-8025-8002-bbab9ed6fde3" viewBox="0 -0 20 20" style="-webkit-print-color-adjust: exact;" fill="none" version="1.1"><g id="shape-db15cf86-6f9e-8025-8002-bbab9ed6fde3" rx="0" ry="0" style="fill: rgb(0, 0, 0);"><g id="shape-db15cf86-6f9e-8025-8002-bbab9ed6fde5"><g class="fills" id="fills-db15cf86-6f9e-8025-8002-bbab9ed6fde5"><path rx="0" ry="0" d="M7.500,10.833L7.500,4.167C7.500,3.250,8.250,2.500,9.167,2.500L16.667,2.500C17.583,2.500,18.333,3.250,18.333,4.167L18.333,9.167L15.475,9.167L14.408,7.717C14.358,7.642,14.258,7.642,14.208,7.717L12.550,10.000C12.500,10.050,12.400,10.058,12.350,10.000L11.158,8.542C11.108,8.483,11.017,8.483,10.967,8.542L9.208,10.758C9.142,10.833,9.200,10.958,9.300,10.958L14.583,10.958L14.583,12.500L9.167,12.500C8.242,12.500,7.500,11.758,7.500,10.833ZM5.000,18.333L5.000,17.500L3.333,17.500L3.333,18.333L1.667,18.333L1.667,1.667L3.333,1.667L3.333,2.500L5.000,2.500L5.000,1.667L6.992,1.667C6.283,2.283,5.833,3.167,5.833,4.167L5.833,10.833C5.833,12.675,7.325,14.167,9.167,14.167L13.083,14.167C12.225,14.858,11.667,15.900,11.667,17.083C11.667,17.525,11.758,17.942,11.900,18.333L5.000,18.333ZM3.333,5.833L5.000,5.833L5.000,4.167L3.333,4.167L3.333,5.833ZM3.333,9.167L5.000,9.167L5.000,7.500L3.333,7.500L3.333,9.167ZM3.333,12.500L5.000,12.500L5.000,10.833L3.333,10.833L3.333,12.500ZM5.000,15.833L5.000,14.167L3.333,14.167L3.333,15.833L5.000,15.833ZM19.167,10.833L19.167,12.500L17.500,12.500L17.500,17.083C17.500,18.233,16.567,19.167,15.417,19.167C14.267,19.167,13.333,18.233,13.333,17.083C13.333,15.933,14.267,15.000,15.417,15.000C15.717,15.000,15.992,15.058,16.250,15.175L16.250,10.833L19.167,10.833ZZ" style="fill: rgb(0, 123, 189); fill-opacity: 1;"/></g></g></g></svg>