<svg width="20" height="20" fill="none" style="-webkit-print-color-adjust:exact" version="1.1" viewBox="0 -0 20 20" xmlns="http://www.w3.org/2000/svg"><g rx="0" ry="0" fill="#000"><g class="fills"><path rx="0" ry="0" d="m7.5 10.833v-6.666c0-0.917 0.75-1.667 1.667-1.667h7.5c0.916 0 1.666 0.75 1.666 1.667v5h-2.858l-1.067-1.45c-0.05-0.075-0.15-0.075-0.2 0l-1.658 2.283c-0.05 0.05-0.15 0.058-0.2 0l-1.192-1.458c-0.05-0.059-0.141-0.059-0.191 0l-1.759 2.216c-0.066 0.075-8e-3 0.2 0.092 0.2h5.283v1.542h-5.416c-0.925 0-1.667-0.742-1.667-1.667zm-2.5 7.5v-0.833h-1.667v0.833h-1.666v-16.666h1.666v0.833h1.667v-0.833h1.992c-0.709 0.616-1.159 1.5-1.159 2.5v6.666c0 1.842 1.492 3.334 3.334 3.334h3.916c-0.858 0.691-1.416 1.733-1.416 2.916 0 0.442 0.091 0.859 0.233 1.25h-6.9zm-1.667-12.5h1.667v-1.666h-1.667v1.666zm0 3.334h1.667v-1.667h-1.667v1.667zm0 3.333h1.667v-1.667h-1.667v1.667zm1.667 3.333v-1.666h-1.667v1.666h1.667zm14.167-5v1.667h-1.667v4.583c0 1.15-0.933 2.084-2.083 2.084s-2.084-0.934-2.084-2.084 0.934-2.083 2.084-2.083c0.3 0 0.575 0.058 0.833 0.175v-4.342h2.917z" fill="#007bbd"/></g></g></svg>
