<svg xmlns:xlink="http://www.w3.org/1999/xlink" width="20" xmlns="http://www.w3.org/2000/svg" height="20" id="screenshot-db15cf86-6f9e-8025-8002-bbab9ed6fdd9" viewBox="-0 0 20 20" style="-webkit-print-color-adjust: exact;" fill="none" version="1.1"><g id="shape-db15cf86-6f9e-8025-8002-bbab9ed6fdd9" rx="0" ry="0" style="fill: rgb(0, 0, 0);"><g id="shape-db15cf86-6f9e-8025-8002-bbab9ed6fddb"><g class="fills" id="fills-db15cf86-6f9e-8025-8002-bbab9ed6fddb"><path rx="0" ry="0" d="M4.167,2.500L4.167,17.500L9.167,17.500L9.167,14.583L10.833,14.583L10.833,17.500L15.833,17.500L15.833,2.500L4.167,2.500ZM5.833,4.167L7.500,4.167L7.500,5.833L5.833,5.833L5.833,4.167ZM9.167,4.167L10.833,4.167L10.833,5.833L9.167,5.833L9.167,4.167ZM12.500,4.167L14.167,4.167L14.167,5.833L12.500,5.833L12.500,4.167ZM5.833,7.500L7.500,7.500L7.500,9.167L5.833,9.167L5.833,7.500ZM9.167,7.500L10.833,7.500L10.833,9.167L9.167,9.167L9.167,7.500ZM12.500,7.500L14.167,7.500L14.167,9.167L12.500,9.167L12.500,7.500ZM5.833,10.833L7.500,10.833L7.500,12.500L5.833,12.500L5.833,10.833ZM9.167,10.833L10.833,10.833L10.833,12.500L9.167,12.500L9.167,10.833ZM12.500,10.833L14.167,10.833L14.167,12.500L12.500,12.500L12.500,10.833ZM5.833,14.167L7.500,14.167L7.500,15.833L5.833,15.833L5.833,14.167ZM12.500,14.167L14.167,14.167L14.167,15.833L12.500,15.833L12.500,14.167ZZ" style="fill: rgb(255, 255, 255); fill-opacity: 1;"/></g></g></g></svg>
