<svg width="20" height="20" fill="none" style="-webkit-print-color-adjust:exact" version="1.1" viewBox="-0 0 20 20" xmlns="http://www.w3.org/2000/svg"><g rx="0" ry="0" fill="#000"><g class="fills"><path rx="0" ry="0" d="m4.167 2.5v15h5v-2.917h1.666v2.917h5v-15h-11.666zm1.666 1.667h1.667v1.666h-1.667v-1.666zm3.334 0h1.666v1.666h-1.666v-1.666zm3.333 0h1.667v1.666h-1.667v-1.666zm-6.667 3.333h1.667v1.667h-1.667v-1.667zm3.334 0h1.666v1.667h-1.666v-1.667zm3.333 0h1.667v1.667h-1.667v-1.667zm-6.667 3.333h1.667v1.667h-1.667v-1.667zm3.334 0h1.666v1.667h-1.666v-1.667zm3.333 0h1.667v1.667h-1.667v-1.667zm-6.667 3.334h1.667v1.666h-1.667v-1.666zm6.667 0h1.667v1.666h-1.667v-1.666z" fill="#fff"/></g></g></svg>
