<svg xmlns:xlink="http://www.w3.org/1999/xlink" width="20" xmlns="http://www.w3.org/2000/svg" height="20" id="screenshot-db15cf86-6f9e-8025-8002-bbab9ed6fded" viewBox="-0 0 20 20" style="-webkit-print-color-adjust: exact;" fill="none" version="1.1"><g id="shape-db15cf86-6f9e-8025-8002-bbab9ed6fded" rx="0" ry="0" style="fill: rgb(0, 0, 0);"><g id="shape-db15cf86-6f9e-8025-8002-bbab9ed6fdef"><g class="fills" id="fills-db15cf86-6f9e-8025-8002-bbab9ed6fdef"><path rx="0" ry="0" d="M10.000,8.333L6.667,11.667L9.167,11.667L9.167,16.667L10.833,16.667L10.833,11.667L13.333,11.667M15.833,3.333L4.167,3.333C3.242,3.333,2.500,4.083,2.500,5.000L2.500,15.000C2.500,15.920,3.246,16.667,4.167,16.667L7.500,16.667L7.500,15.000L4.167,15.000L4.167,6.667L15.833,6.667L15.833,15.000L12.500,15.000L12.500,16.667L15.833,16.667C16.754,16.667,17.500,15.920,17.500,15.000L17.500,5.000C17.500,4.080,16.754,3.333,15.833,3.333ZZ" style="fill: rgb(0, 123, 189); fill-opacity: 1;"/></g></g></g></svg>