<svg xmlns:xlink="http://www.w3.org/1999/xlink" width="20" xmlns="http://www.w3.org/2000/svg" height="20" id="screenshot-db15cf86-6f9e-8025-8002-bbab9ed6fdde" viewBox="0 -0 20 20" style="-webkit-print-color-adjust: exact;" fill="none" version="1.1"><g id="shape-db15cf86-6f9e-8025-8002-bbab9ed6fdde" rx="0" ry="0" style="fill: rgb(0, 0, 0);"><g id="shape-db15cf86-6f9e-8025-8002-bbab9ed6fde0"><g class="fills" id="fills-db15cf86-6f9e-8025-8002-bbab9ed6fde0"><path rx="0" ry="0" d="M8.333,15.925L10.092,14.167L5.833,14.167L5.833,12.500L11.667,12.500L11.667,12.600L13.433,10.833L5.833,10.833L5.833,9.167L14.167,9.167L14.167,10.100L15.200,9.075C15.600,8.675,16.125,8.450,16.700,8.450C16.975,8.450,17.250,8.508,17.500,8.608L17.500,4.167C17.500,3.242,16.750,2.500,15.833,2.500L4.167,2.500C3.242,2.500,2.500,3.242,2.500,4.167L2.500,15.833C2.500,16.758,3.250,17.500,4.167,17.500L8.333,17.500L8.333,15.925ZM5.833,5.833L14.167,5.833L14.167,7.500L5.833,7.500L5.833,5.833ZM18.083,11.958L17.250,12.792L15.542,11.083L16.375,10.250C16.550,10.075,16.842,10.075,17.017,10.250L18.083,11.317C18.258,11.492,18.258,11.783,18.083,11.958ZM10.000,16.617L15.050,11.567L16.758,13.275L11.717,18.333L10.000,18.333L10.000,16.617ZZ" style="fill: rgb(255, 255, 255); fill-opacity: 1;"/></g></g></g></svg>
