<svg xmlns="http://www.w3.org/2000/svg" xml:space="preserve" style="fill-rule:evenodd;clip-rule:evenodd;stroke-linejoin:round;stroke-miterlimit:2" viewBox="0 0 20 20" height="20" width="20"><path d="M6 2c-1.11 0-2 .89-2 2v16c0 1.097.903 2 2 2h4v-1.91L12.09 18H6v-2h8.09l2-2H6v-2h12.09L20 10.09V8l-6-6H6m7 1.5L18.5 9H13V3.5m7.15 9.5a.55.55 0 0 0-.4.16l-1.02 1.02 2.09 2.08 1.02-1.01c.21-.22.21-.58 0-.79l-1.3-1.3a.544.544 0 0 0-.39-.16m-2.01 1.77L12 20.92V23h2.08l6.15-6.15-2.09-2.08Z" style="fill:#007bbd;fill-rule:nonzero" transform="translate(-1.056 -1.078) scale(.88901)"/></svg>