<svg width="20" height="20" fill="none" style="-webkit-print-color-adjust:exact" version="1.1" viewBox="0 -0 20 20" xmlns="http://www.w3.org/2000/svg"><g rx="0" ry="0" fill="#000"><g class="fills"><path rx="0" ry="0" d="m8.333 15.925 1.759-1.758h-4.259v-1.667h5.834v0.1l1.766-1.767h-7.6v-1.666h8.334v0.933l1.033-1.025c0.4-0.4 0.925-0.625 1.5-0.625 0.275 0 0.55 0.058 0.8 0.158v-4.441c0-0.925-0.75-1.667-1.667-1.667h-11.666c-0.925 0-1.667 0.742-1.667 1.667v11.666c0 0.925 0.75 1.667 1.667 1.667h4.166v-1.575zm-2.5-10.092h8.334v1.667h-8.334v-1.667zm12.25 6.125-0.833 0.834-1.708-1.709 0.833-0.833c0.175-0.175 0.467-0.175 0.642 0l1.066 1.067c0.175 0.175 0.175 0.466 0 0.641zm-8.083 4.659 5.05-5.05 1.708 1.708-5.041 5.058h-1.717v-1.716z" fill="#fff"/></g></g></svg>
