<svg width="20" height="20" fill="none" style="-webkit-print-color-adjust:exact" version="1.1" viewBox="-0 0 20 20" xmlns="http://www.w3.org/2000/svg"><g rx="0" ry="0" fill="#000"><g class="fills"><path rx="0" ry="0" d="m18.092 16.908-1.184 1.184c-0.325 0.323-0.85 0.323-1.175 0l-9.9-9.884c-0.271 0.079-0.551 0.121-0.833 0.125-1.077 0-2.086-0.521-2.711-1.397-0.626-0.877-0.789-2.001-0.439-3.019l2.117 2.116 2.066-2.066-2.116-2.117c1.018-0.35 2.142-0.187 3.019 0.439 0.876 0.625 1.397 1.634 1.397 2.711-4e-3 0.282-0.046 0.562-0.125 0.833l9.884 9.9c0.323 0.325 0.323 0.85 0 1.175zm-16.184-1.175c-0.323 0.325-0.323 0.85 0 1.175l1.184 1.184c0.325 0.323 0.85 0.323 1.175 0l4.558-4.55-2.358-2.359m10.2-9.516-3.334 1.666v1.667l-1.808 1.808 1.667 1.667 1.808-1.808h1.667l1.666-3.334z" fill="#007bbd"/></g></g></svg>
