<svg xmlns:xlink="http://www.w3.org/1999/xlink" width="20" xmlns="http://www.w3.org/2000/svg" height="20" id="screenshot-db15cf86-6f9e-8025-8002-bbab9ed6fe01" viewBox="-0 0 20 20" style="-webkit-print-color-adjust: exact;" fill="none" version="1.1"><g id="shape-db15cf86-6f9e-8025-8002-bbab9ed6fe01" rx="0" ry="0" style="fill: rgb(0, 0, 0);"><g id="shape-db15cf86-6f9e-8025-8002-bbab9ed6fe03"><g class="fills" id="fills-db15cf86-6f9e-8025-8002-bbab9ed6fe03"><path rx="0" ry="0" d="M18.092,16.908L16.908,18.092C16.583,18.415,16.058,18.415,15.733,18.092L5.833,8.208C5.562,8.287,5.282,8.329,5.000,8.333C3.923,8.333,2.914,7.812,2.289,6.936C1.663,6.059,1.500,4.935,1.850,3.917L3.967,6.033L4.408,5.592L5.592,4.408L6.033,3.967L3.917,1.850C4.935,1.500,6.059,1.663,6.936,2.289C7.812,2.914,8.333,3.923,8.333,5.000C8.329,5.282,8.287,5.562,8.208,5.833L18.092,15.733C18.415,16.058,18.415,16.583,18.092,16.908ZM1.908,15.733C1.585,16.058,1.585,16.583,1.908,16.908L3.092,18.092C3.417,18.415,3.942,18.415,4.267,18.092L8.825,13.542L6.467,11.183M16.667,1.667L13.333,3.333L13.333,5.000L11.525,6.808L13.192,8.475L15.000,6.667L16.667,6.667L18.333,3.333Z" style="fill: rgb(255, 255, 255); fill-opacity: 1;"/></g></g></g></svg>
