<svg xmlns:xlink="http://www.w3.org/1999/xlink" width="20" xmlns="http://www.w3.org/2000/svg" height="20" id="screenshot-db15cf86-6f9e-8025-8002-bbab9ed69713" viewBox="0 0 20 20" style="-webkit-print-color-adjust: exact;" fill="none" version="1.1"><g id="shape-db15cf86-6f9e-8025-8002-bbab9ed69713" rx="0" ry="0" style="fill: rgb(0, 0, 0);"><g id="shape-db15cf86-6f9e-8025-8002-bbab9ed69715"><g class="fills" id="fills-db15cf86-6f9e-8025-8002-bbab9ed69715"><path rx="0" ry="0" d="M10.833,2.500C7.692,2.500,5.158,4.958,5.000,8.050L3.400,10.158C3.200,10.417,3.400,10.833,3.750,10.833L5.000,10.833L5.000,13.333C5.000,14.258,5.742,15.000,6.667,15.000L7.500,15.000L7.500,17.500L13.333,17.500L13.333,13.592C15.308,12.658,16.667,10.667,16.667,8.333C16.667,5.117,14.067,2.500,10.833,2.500ZM11.667,11.667L10.000,11.667L10.000,10.000L11.667,10.000L11.667,11.667ZM13.125,7.342C12.883,7.675,12.575,7.917,12.200,8.117C11.992,8.250,11.850,8.392,11.775,8.550C11.700,8.700,11.667,8.908,11.667,9.167L10.000,9.167C10.000,8.750,10.092,8.400,10.258,8.183C10.417,7.958,10.708,7.708,11.133,7.425C11.350,7.292,11.525,7.125,11.642,6.933C11.775,6.742,11.833,6.517,11.833,6.250C11.833,6.000,11.767,5.783,11.617,5.625C11.467,5.475,11.250,5.392,10.992,5.392C10.775,5.392,10.592,5.458,10.442,5.583C10.292,5.717,10.217,5.908,10.208,6.158L8.600,6.158L8.592,6.133C8.583,5.475,8.800,5.000,9.233,4.658C9.683,4.333,10.267,4.167,10.992,4.167C11.767,4.167,12.375,4.358,12.817,4.733C13.267,5.108,13.492,5.617,13.492,6.250C13.492,6.667,13.367,7.008,13.125,7.342ZZ" style="fill: rgb(0, 123, 189); fill-opacity: 1;"/></g></g></g></svg>