<svg xmlns:xlink="http://www.w3.org/1999/xlink" width="20" xmlns="http://www.w3.org/2000/svg" height="20" id="screenshot-db15cf86-6f9e-8025-8002-bbab9ed6fe4c" viewBox="0 0 20 20" style="-webkit-print-color-adjust: exact;" fill="none" version="1.1"><g id="shape-db15cf86-6f9e-8025-8002-bbab9ed6fe4c" rx="0" ry="0" style="fill: rgb(0, 0, 0);"><g id="shape-db15cf86-6f9e-8025-8002-bbab9ed6fe4e"><g class="fills" id="fills-db15cf86-6f9e-8025-8002-bbab9ed6fe4e"><path rx="0" ry="0" d="M10.525,1.667C15.133,1.667,18.867,5.417,18.867,10.000C18.867,14.583,15.133,18.333,10.525,18.333C7.600,18.333,5.042,16.817,3.550,14.525L4.867,13.483C6.042,15.392,8.133,16.667,10.533,16.667C14.215,16.667,17.200,13.682,17.200,10.000C17.200,6.318,14.215,3.333,10.533,3.333C7.133,3.333,4.333,5.883,3.925,9.167L6.225,9.167L3.108,12.275L0.000,9.167L2.242,9.167C2.658,4.958,6.208,1.667,10.525,1.667ZM12.992,8.533C13.408,8.542,13.750,8.875,13.750,9.300L13.750,13.142C13.750,13.558,13.408,13.908,12.983,13.908L8.375,13.908C7.950,13.908,7.608,13.558,7.608,13.142L7.608,9.300C7.608,8.875,7.950,8.542,8.367,8.533L8.367,7.692C8.367,6.417,9.408,5.383,10.675,5.383C11.950,5.383,12.992,6.417,12.992,7.692L12.992,8.533ZM10.675,6.550C10.050,6.550,9.533,7.058,9.533,7.692L9.533,8.533L11.825,8.533L11.825,7.692C11.825,7.058,11.308,6.550,10.675,6.550ZZ" style="fill: rgb(255, 255, 255); fill-opacity: 1;"/></g></g></g></svg>