<svg width="20" height="20" fill="none" style="-webkit-print-color-adjust:exact" version="1.1" viewBox="0 0 20 20" xmlns="http://www.w3.org/2000/svg"><g rx="0" ry="0" fill="#000"><g class="fills"><path rx="0" ry="0" d="m10.942 18.492-1.359-3.192c1.309-0.483 2.534-1.133 3.667-1.892l-2.308 5.084zm-6.242-8.075-3.192-1.359 5.084-2.308c-0.759 1.133-1.409 2.358-1.892 3.667zm13.308-8.425s-4.125-1.768-8.841 2.95c-1.825 1.825-2.917 3.833-3.625 5.591-0.234 0.625-0.075 1.309 0.383 1.775l1.775 1.767c0.458 0.467 1.142 0.617 1.767 0.383 1.783-0.683 3.766-1.8 5.591-3.625 4.717-4.716 2.95-8.841 2.95-8.841zm-5.891 5.891c-0.65-0.65-0.65-1.708 0-2.358s1.708-0.65 2.358 0c0.642 0.65 0.65 1.708 0 2.358s-1.708 0.65-2.358 0zm-4.717 5.892-1.175-1.175 1.175 1.175zm-2.2 4.558 3.033-3.033c-0.283-0.075-0.558-0.2-0.808-0.375l-3.4 3.408h1.175zm-3.533 0h1.175l3.975-3.966-1.184-1.175-3.966 3.966v1.175zm0-2.358 3.408-3.4c-0.175-0.25-0.3-0.517-0.375-0.808l-3.033 3.033v1.175z" fill="#fff"/></g></g></svg>
