<svg xmlns:xlink="http://www.w3.org/1999/xlink" width="20" xmlns="http://www.w3.org/2000/svg" height="20" id="screenshot-db15cf86-6f9e-8025-8002-bbab9ed66083" viewBox="0 0 20 20" style="-webkit-print-color-adjust: exact;" fill="none" version="1.1"><g id="shape-db15cf86-6f9e-8025-8002-bbab9ed66083" rx="0" ry="0" style="fill: rgb(0, 0, 0);"><g id="shape-db15cf86-6f9e-8025-8002-bbab9ed66085"><g class="fills" id="fills-db15cf86-6f9e-8025-8002-bbab9ed66085"><path rx="0" ry="0" d="M10.942,18.492L9.583,15.300C10.892,14.817,12.117,14.167,13.250,13.408L10.942,18.492ZM4.700,10.417L1.508,9.058L6.592,6.750C5.833,7.883,5.183,9.108,4.700,10.417ZM18.008,1.992C18.008,1.992,13.883,0.224,9.167,4.942C7.342,6.767,6.250,8.775,5.542,10.533C5.308,11.158,5.467,11.842,5.925,12.308L7.700,14.075C8.158,14.542,8.842,14.692,9.467,14.458C11.250,13.775,13.233,12.658,15.058,10.833C19.775,6.117,18.008,1.992,18.008,1.992ZM12.117,7.883C11.467,7.233,11.467,6.175,12.117,5.525C12.767,4.875,13.825,4.875,14.475,5.525C15.117,6.175,15.125,7.233,14.475,7.883C13.825,8.533,12.767,8.533,12.117,7.883ZM7.400,13.775L6.225,12.600L7.400,13.775ZM5.200,18.333L8.233,15.300C7.950,15.225,7.675,15.100,7.425,14.925L4.025,18.333L5.200,18.333ZM1.667,18.333L2.842,18.333L6.817,14.367L5.633,13.192L1.667,17.158L1.667,18.333ZM1.667,15.975L5.075,12.575C4.900,12.325,4.775,12.058,4.700,11.767L1.667,14.800L1.667,15.975ZZ" style="fill: rgb(0, 123, 189); fill-opacity: 1;"/></g></g></g></svg>