<svg width="20" height="20" version="1.1" viewBox="0 0 24 24" xmlns="http://www.w3.org/2000/svg"><path d="m13.13 22.19-1.63-3.83c1.57-0.58 3.04-1.36 4.4-2.27l-2.77 6.1m-7.49-9.69-3.83-1.63 6.1-2.77c-0.91 1.36-1.69 2.83-2.27 4.4m13.58-8.5c0.28 0 0.53 0 0.74 0.05 0.17 1.39-0.02 4.25-3.3 7.53-1.7 1.71-3.73 3.02-6.01 3.89l-2.15-2.1c0.92-2.31 2.23-4.34 3.92-6.03 2.76-2.76 5.22-3.34 6.8-3.34m0-2c-1.98 0-4.98 0.69-8.22 3.93-2.19 2.19-3.5 4.6-4.35 6.71-0.28 0.75-0.09 1.57 0.46 2.13l2.13 2.12c0.38 0.38 0.89 0.61 1.42 0.61 0.23 0 0.47-0.06 0.7-0.15 2.14-0.82 4.52-2.16 6.71-4.35 5.66-5.66 3.54-10.61 3.54-10.61s-0.91-0.39-2.39-0.39m-4.68 7.46c-0.78-0.78-0.78-2.05 0-2.83s2.05-0.78 2.83 0c0.77 0.78 0.78 2.05 0 2.83s-2.05 0.78-2.83 0m-5.66 7.07-1.41-1.41 1.41 1.41m-2.64 5.47 3.64-3.64c-0.34-0.09-0.67-0.24-0.97-0.45l-4.08 4.09h1.41m-4.24 0h1.41l4.77-4.76-1.42-1.41-4.76 4.76v1.41m0-2.83 4.09-4.08c-0.21-0.3-0.36-0.62-0.45-0.97l-3.64 3.64z" fill="#fff"/></svg>
