<svg width="20" height="20" fill="none" style="-webkit-print-color-adjust:exact" version="1.1" viewBox="0 0 20 20" xmlns="http://www.w3.org/2000/svg"><g rx="0" ry="0" fill="#000"><g class="fills"><path rx="0" ry="0" d="m7.708 4.167 2.709-2.709 2.708 2.709h-5.417zm5.417 11.666-2.708 2.709-2.709-2.709h5.417zm-5.717-3.916h-2.408l-0.6 2.25h-1.975l2.575-8.334h2.5l2.608 8.334h-2.05l-0.65-2.25zm-2.133-1.35h1.858l-0.525-1.767-0.216-0.808-0.209-0.8h-0.025l-0.183 0.808-0.2 0.817-0.5 1.75zm5.6 3.6v-1.05l3.958-5.642v-0.05h-3.583v-1.592h6.025v1.117l-3.867 5.55v0.067h3.925v1.6h-6.458z" fill="#007bbd"/></g></g></svg>
