<svg xmlns:xlink="http://www.w3.org/1999/xlink" width="20" xmlns="http://www.w3.org/2000/svg" height="20" id="screenshot-db15cf86-6f9e-8025-8002-bbab9ed6607e" viewBox="0 0 20 20" style="-webkit-print-color-adjust: exact;" fill="none" version="1.1"><g id="shape-db15cf86-6f9e-8025-8002-bbab9ed6607e" rx="0" ry="0" style="fill: rgb(0, 0, 0);"><g id="shape-db15cf86-6f9e-8025-8002-bbab9ed66080"><g class="fills" id="fills-db15cf86-6f9e-8025-8002-bbab9ed66080"><path rx="0" ry="0" d="M12.500,2.500L7.500,2.500L7.500,0.833L12.500,0.833L12.500,2.500ZM10.833,15.833C10.833,16.692,11.050,17.500,11.425,18.192C10.967,18.283,10.492,18.333,10.000,18.333C5.858,18.333,2.500,14.975,2.500,10.833C2.500,6.692,5.858,3.333,10.000,3.333C11.767,3.333,13.392,3.950,14.683,5.000L15.867,3.800C16.292,4.167,16.667,4.550,17.042,4.975L15.858,6.158C16.883,7.442,17.500,9.067,17.500,10.833C17.500,10.933,17.500,11.025,17.500,11.125C16.967,10.942,16.417,10.833,15.833,10.833C13.075,10.833,10.833,13.075,10.833,15.833ZM10.833,5.833L9.167,5.833L9.167,11.667L10.833,11.667L10.833,5.833ZM19.167,14.908L16.758,14.700L15.833,12.500L14.892,14.700L12.500,14.908L14.317,16.475L13.750,18.817L15.833,17.575L17.875,18.817L17.333,16.475L19.167,14.908ZZ" style="fill: rgb(255, 255, 255); fill-opacity: 1;"/></g></g></g></svg>
