<svg width="20" height="20" fill="none" style="-webkit-print-color-adjust:exact" version="1.1" viewBox="0 0 20 20" xmlns="http://www.w3.org/2000/svg"><g rx="0" ry="0" fill="#000"><g class="fills"><path rx="0" ry="0" d="m12.5 2.5h-5v-1.667h5v1.667zm-1.667 13.333c0 0.859 0.217 1.667 0.592 2.359-0.458 0.091-0.933 0.141-1.425 0.141-4.142 0-7.5-3.358-7.5-7.5 0-4.141 3.358-7.5 7.5-7.5 1.767 0 3.392 0.617 4.683 1.667l1.184-1.2c0.425 0.367 0.8 0.75 1.175 1.175l-1.184 1.183c1.025 1.284 1.642 2.909 1.642 4.675v0.292c-0.533-0.183-1.083-0.292-1.667-0.292-2.758 0-5 2.242-5 5zm0-10h-1.666v5.834h1.666v-5.834zm8.334 9.075-2.409-0.208-0.925-2.2-0.941 2.2-2.392 0.208 1.817 1.567-0.567 2.342 2.083-1.242 2.042 1.242-0.542-2.342 1.834-1.567z" fill="#fff"/></g></g></svg>
