<svg width="138" height="92" enable-background="new 0 0 138 92" version="1.1" viewBox="0 0 138 92" xmlns="http://www.w3.org/2000/svg"><g fill="#fff"><path d="m69.111 1.452c-14.11 0-26.06 9.558-29.748 22.507-3.229-6.861-10.203-11.682-18.236-11.682-11.041 0-20.127 9.086-20.127 20.127 0 11.06 9.086 20.129 20.127 20.129 8.033 0 15.008-4.806 18.236-11.684 3.688 12.967 15.638 22.528 29.748 22.528 13.979 0 25.885-9.421 29.661-22.227 3.29 6.71 10.183 11.382 18.078 11.382 11.078 0 20.149-9.07 20.149-20.129 0-11.041-9.071-20.127-20.149-20.127-7.896 0-14.788 4.669-18.078 11.398-3.776-12.805-15.681-22.222-29.661-22.222zm0 11.818c10.637 0 19.138 8.497 19.138 19.134s-8.501 19.156-19.138 19.156c-10.655 0-19.153-8.519-19.153-19.156s8.498-19.134 19.153-19.134zm-47.984 10.824c4.658 0 8.312 3.651 8.312 8.31s-3.654 8.312-8.312 8.312c-4.659 0-8.31-3.654-8.31-8.312s3.652-8.31 8.31-8.31zm95.724 0c4.696 0 8.332 3.651 8.332 8.31s-3.636 8.312-8.332 8.312c-4.658 0-8.291-3.654-8.291-8.312s3.632-8.31 8.291-8.31z"/><g transform="matrix(.47039 0 0 .47039 21.389 50.76)"><path d="m30.532 57.056c7.048 0 10.993 5.034 10.993 12.506 0 .754-.589 1.341-1.302 1.341h-19.006c.125 6.714 4.783 10.49 10.153 10.49 3.357 0 5.749-1.424 6.925-2.352.713-.5 1.341-.413 1.679.336l.376.592c.338.583.211 1.175-.376 1.673-1.426 1.092-4.533 2.857-8.688 2.857-7.764 0-13.761-5.622-13.761-13.762.124-8.56 5.871-13.681 13.007-13.681zm7.301 11.244c-.252-5.535-3.57-8.304-7.388-8.304-4.445 0-8.263 2.934-9.104 8.304z"/><path d="m77.385 60.838v-2.942-6.214c0-.837.5-1.339 1.339-1.339h.926c.839 0 1.215.502 1.215 1.339v6.214h5.372c.838 0 1.302.421 1.302 1.258v.417c0 .841-.464 1.177-1.302 1.177h-5.372v13.094c0 6.127 3.694 6.876 5.708 6.963 1.09.087 1.466.338 1.466 1.341v.675c0 .837-.376 1.175-1.466 1.175-5.708 0-9.188-3.444-9.188-9.65z"/><path d="m104.7 57.056c4.611 0 7.468 1.929 8.73 2.94.586.5.752 1.092.162 1.842l-.415.592c-.424.675-1.009.675-1.763.249-1.175-.841-3.444-2.431-6.548-2.431-5.748 0-10.279 4.281-10.279 10.657 0 6.21 4.531 10.49 10.279 10.49 3.693 0 6.21-1.677 7.385-2.765.754-.426 1.179-.34 1.68.413l.336.424c.415.754.253 1.254-.336 1.841-1.343 1.011-4.532 3.278-9.313 3.278-7.764 0-13.725-5.543-13.725-13.681.127-8.14 6.085-13.849 13.807-13.849z"/><path d="m120.643 48.581c0-.841-.504-1.341.336-1.341h.926c.839 0 2.18.5 2.18 1.341v28.532c0 3.357 1.511 3.693 2.767 3.781.59 0 1.088.413 1.088 1.254v.837c0 .841-.413 1.266-1.339 1.266-2.18 0-5.958-.675-5.958-6.463z"/><path d="m145.066 57.056c7.638 0 13.848 5.873 13.848 13.598 0 7.887-6.21 13.845-13.848 13.845-7.636 0-13.848-5.958-13.848-13.845 0-7.725 6.212-13.598 13.848-13.598zm0 24.338c5.622 0 10.154-4.53 10.154-10.74 0-5.96-4.532-10.407-10.154-10.407-5.541 0-10.239 4.53-10.239 10.407.085 6.12 4.698 10.74 10.239 10.74z"/><path d="m204.65 57.056c6.374 0 8.639 5.207 8.639 5.207h.089s-.089-.839-.089-2.016v-11.832c0-.837-.334-1.262.505-1.262h.926c.837 0 2.18.426 2.18 1.262v34.071c0 .837-.417 1.339-1.256 1.339h-.839c-.841 0-1.262-.415-1.262-1.256v-2.016c0-.926.251-1.675.251-1.675h-.164s-2.267 5.535-9.066 5.535c-7.048 0-11.493-5.622-11.493-13.758-.176-8.144 4.692-13.599 11.579-13.599zm.164 24.338c4.447 0 8.475-3.106 8.475-10.657 0-5.369-2.765-10.491-8.389-10.491-4.615 0-8.477 3.855-8.477 10.491.167 6.463 3.52 10.657 8.391 10.657z"/><path d="m-13.25 83.91h.965c.839 0 1.302-.5 1.302-1.341v-25.655c0-4.032 4.445-6.905 9.441-6.905 5.033 0 9.44 2.873 9.44 6.905v25.654c0 .841.462 1.341 1.302 1.341h.963c.839 0 1.217-.5 1.217-1.341v-25.762c0-6.797-6.839-10.154-13.048-10.154-5.959 0-12.757 3.357-12.757 10.154v25.762c0 .841.337 1.342 1.175 1.342z"/><path d="m186.019 57.643h-.924c-.841 0-1.341.504-1.341 1.341v14.435c0 4.03-2.605 7.725-7.723 7.725-5.034 0-7.802-3.695-7.802-7.725v-14.435c0-.837-.426-1.341-1.262-1.341h-1.003c-.839 0-1.177.504-1.177 1.341v15.363c0 6.797 5.032 10.152 11.244 10.152 6.21 0 11.244-3.355 11.244-10.152v-15.363c.085-.836-.415-1.341-1.256-1.341z"/><path d="m67.864 57.423c-.29.033-.57.253-.844.563l-4.862 5.809-3.593 4.289-5.485-6.517-2.968-3.581c-.274-.309-.571-.513-.878-.534-.346-.021-.66.145-.97.419l-.726.6c-.659.542-.634 1.129-.089 1.75l4.825 5.73 4.032 4.781-5.886 7.013c-.002.004-.004.008-.007.012l-2.964 3.569c-.545.621-.461 1.262.158 1.808l.763.594c.62.546 1.196.451 1.742-.17l4.822-5.805 3.633-4.293 5.485 6.521c.001 0 .005.004.008.008l2.962 3.569c.545.621 1.188.662 1.845.116l.726-.6c.658-.544.596-1.127.051-1.748l-4.825-5.809-3.993-4.781 5.847-6.934c.002-.004.006-.008.046-.012l2.925-3.569c.545-.621.502-1.341-.158-1.808l-.724-.679c-.309-.269-.608-.344-.898-.311z"/></g></g></svg>
