<svg width="141.48" height="99.603" enable-background="new 0 0 196.6 72" version="1.1" viewBox="0 0 132.64 93.377" xml:space="preserve" xmlns="http://www.w3.org/2000/svg"><path d="m66.408 9.375c-11.805 0-21.811 8.0032-24.912 18.847-2.6952-5.7515-8.5359-9.7809-15.263-9.7809-9.2518 0-16.857 7.6053-16.857 16.857 0 9.2518 7.6053 16.861 16.857 16.861 6.7275 0 12.568-4.0319 15.263-9.7844 3.1012 10.844 13.107 18.85 24.912 18.85 11.718 0 21.673-7.8851 24.853-18.607 2.745 5.6219 8.5134 9.5414 15.145 9.5414 9.2518 0 16.861-7.6087 16.861-16.861 0-9.2518-7.6087-16.857-16.861-16.857-6.6319 0-12.4 3.917-15.145 9.5379-3.1805-10.721-13.135-18.604-24.853-18.604zm0 9.8955c8.9116 0 16.031 7.1157 16.031 16.027 0 8.9116-7.1191 16.031-16.031 16.031-8.9116 0-16.027-7.1191-16.027-16.031 0-8.9116 7.1157-16.027 16.027-16.027zm-40.176 9.0657c3.9044 0 6.965 3.0572 6.965 6.9616 0 3.9044-3.0607 6.965-6.965 6.965-3.9044 0-6.9616-3.0607-6.9616-6.965 0-3.9044 3.0572-6.9616 6.9616-6.9616zm80.175 0c3.9044 0 6.9651 3.0572 6.9651 6.9616 0 3.9044-3.0607 6.965-6.9651 6.965-3.9044 0-6.9616-3.0607-6.9616-6.965 0-3.9044 3.0572-6.9616 6.9616-6.9616z" color-rendering="auto" enable-background="accumulate" fill="#fff" image-rendering="auto" shape-rendering="auto" style="isolation:auto;mix-blend-mode:normal;text-decoration-color:#000;text-decoration-line:none;text-decoration-style:solid;text-indent:0;text-transform:none;white-space:normal"/><path d="m21.236 69.044c-0.32926 0-0.47147 0.18794-0.47147 0.51724v13.643c0 0.32927 0.14221 0.51495 0.47147 0.51495h0.37763c0.32927 0 0.51494-0.18568 0.51494-0.51495v-11.329l7.4473 11.558c0.0324 0.0505 0.0677 0.0842 0.10299 0.12123 0.0106 0.0125 0.0179 0.0256 0.0298 0.0366 0.0317 0.0289 0.0665 0.044 0.10065 0.0618 0.019 0.01 0.0338 0.0247 0.055 0.032 0.0148 5e-3 0.0304 2e-3 0.0458 6e-3 0.0525 0.0135 0.10618 0.0275 0.16936 0.0275h0.37534c0.32926 0 0.47146-0.18567 0.47146-0.51495v-13.642c0-0.3293-0.1422-0.51724-0.47146-0.51724h-0.37534c-0.32929 0-0.51724 0.18794-0.51724 0.51724v11.329l-7.4473-11.558c-0.0254-0.03939-0.0561-0.06339-0.0847-0.0939-0.086-0.12161-0.2222-0.19454-0.41654-0.19454zm89.42 0.18768c-0.32926 0-0.18767 0.18796-0.18767 0.51724v4.6574c0 0.47037 0.0456 0.79872 0.0456 0.79872h-0.0456s-0.89419-2.0689-3.3872-2.0689c-2.7282 0-4.6577 2.1637-4.5636 5.3623 0 3.1986 1.7402 5.4104 4.5155 5.4104 2.6812 0 3.5749-2.1651 3.5749-2.1651h0.048s-0.0939 0.28283-0.0939 0.65913v0.79874c0 0.32926 0.18796 0.47148 0.51726 0.47148h0.32955c0.32927 0 0.46917-0.18798 0.46917-0.51724v-13.407c0-0.32928-0.51754-0.51724-0.84681-0.51724zm-36.55 0.0481c-0.32928 0-0.13961 0.18798-0.13961 0.51724v11.523c0 2.2578 1.5038 2.5404 2.3505 2.5404 0.3763 0 0.51722-0.18796 0.51722-0.51721v-0.32958c0-0.32926-0.18821-0.46918-0.42339-0.46918-0.4704-0.047-1.0802-0.18887-1.0802-1.5059v-11.242c0-0.32927-0.51753-0.51724-0.84681-0.51724zm-16.886 1.2222c-0.32927 0-0.51724 0.18798-0.51724 0.51724v8.9372c0 2.446 1.3651 3.8106 3.6229 3.8106 0.42334 0 0.56301-0.13993 0.56301-0.46918v-0.2838c0-0.37629-0.13967-0.47024-0.56301-0.51724-0.79965-0.047-2.2589-0.32912-2.2589-2.7281v-5.1746h2.117c0.32927 0 0.51724-0.1399 0.51724-0.46918v-0.1419c0-0.32926-0.18797-0.51722-0.51724-0.51722h-2.117v-2.4466c0-0.32926-0.13991-0.51724-0.46918-0.51724zm-18.735 2.6343c-2.8223 0-5.0819 2.0236-5.1289 5.4104 0 3.1986 2.3529 5.4081 5.4104 5.4081 1.6463 0 2.8685-0.70495 3.433-1.1283 0.23526-0.18814 0.28301-0.42392 0.1419-0.65912l-0.1419-0.23346c-0.14112-0.28223-0.37461-0.33005-0.65685-0.14188-0.47038 0.37629-1.4133 0.94064-2.7304 0.94064-2.1167 0-3.9513-1.506-3.9983-4.1402h7.4793c0.28225 0 0.51724-0.23501 0.51724-0.51725 0-2.9634-1.5503-4.9389-4.3256-4.9389zm29.224 0c-3.0575 0-5.4092 2.2576-5.4562 5.4561 0 3.1986 2.3529 5.4104 5.4104 5.4104 1.8815 0 3.1513-0.89493 3.6687-1.3183 0.23526-0.2352 0.28073-0.42265 0.13962-0.7049l-0.13962-0.18766c-0.18814-0.28225-0.3769-0.33005-0.65913-0.14191-0.47038 0.42334-1.4576 1.0826-2.9158 1.0826-2.2578 0-4.0463-1.6942-4.0463-4.1402 0-2.493 1.7885-4.186 4.0463-4.186 1.223 0 2.1158 0.61137 2.5862 0.94065 0.28224 0.18807 0.51675 0.18838 0.70491-0.0938l0.1419-0.23572c0.23527-0.28224 0.18712-0.51677-0.0481-0.7049-0.51742-0.42337-1.6455-1.1764-3.433-1.1764zm15.899 0c-3.0105 0-5.4562 2.3048-5.4562 5.3623 0 3.1045 2.4457 5.4562 5.4562 5.4562 3.0105 0 5.4562-2.3516 5.4562-5.4562 0-3.0575-2.4457-5.3623-5.4562-5.3623zm-30.43 0.15793c-0.11518 0.0184-0.22604 0.0959-0.33186 0.22197l-1.9042 2.268-1.4235 1.6982-2.1582-2.5702-1.1695-1.3961c-0.10588-0.12611-0.2258-0.19525-0.35016-0.20597-0.12435-0.01-0.2538 0.0361-0.37992 0.14189l-0.28837 0.24258c-0.25222 0.21167-0.23901 0.44583-0.02745 0.69807l1.9042 2.268 1.5792 1.8836-2.3115 2.7533c-0.0024 2e-3 -0.0035 5e-3 -0.0046 6e-3l-1.1672 1.3892c-0.21165 0.25223-0.18813 0.51842 0.06408 0.73009l0.28837 0.2403c0.25224 0.21164 0.48181 0.15841 0.69346-0.0939l1.9019-2.2681 1.4258-1.6982 2.1582 2.5724c1e-3 2e-3 0.0035 4e-3 0.0046 5e-3l1.1649 1.3915c0.21165 0.25223 0.47783 0.27337 0.73008 0.0617l0.28837-0.2403c0.25224-0.21165 0.23913-0.44581 0.02746-0.69805l-1.9042-2.2703-1.5792-1.8813 2.3115-2.7555c0.0024-2e-3 0.0035-4e-3 0.0046-6e-3l1.1672-1.3892c0.21165-0.25224 0.18813-0.51844-0.06408-0.73009l-0.28837-0.2403c-0.12611-0.10587-0.24641-0.14655-0.36161-0.12815zm38.662 0.0779c-0.32928 0-0.47148 0.18796-0.47148 0.51723v6.0672c0 2.6812 1.9757 3.9983 4.4217 3.9983 2.446 0 4.4217-1.3171 4.4217-3.9983v-6.0672c0.047-0.32926-0.13991-0.51723-0.46918-0.51723h-0.37763c-0.32927 0-0.51724 0.18797-0.51724 0.51723v5.6919c0 1.5993-1.035 3.0577-3.0576 3.0577-1.9756 0-3.0576-1.4584-3.0576-3.0577v-5.6919c0-0.32926-0.18797-0.51723-0.51726-0.51723zm-53.404 0.94063c1.5052 0 2.8216 1.0816 2.9158 3.2453h-6.4906c0.32927-2.1167 1.8345-3.2453 3.5749-3.2453zm45.171 0.0939c2.2108 0 3.9983 1.7402 3.9983 4.0921 0 2.446-1.7875 4.234-3.9983 4.234-2.2108 0-3.9994-1.835-4.0463-4.234 0-2.3049 1.8356-4.0921 4.0463-4.0921zm23.566 0c2.2108 0 3.2934 2.0235 3.2934 4.1402 0 2.9634-1.601 4.186-3.3414 4.186-1.9286 0-3.2441-1.6459-3.2911-4.186 0-2.6342 1.5046-4.1402 3.3391-4.1402z" fill="#fff" stroke-width=".47039"/></svg>
