<svg xmlns="http://www.w3.org/2000/svg" xml:space="preserve" style="fill-rule:evenodd;clip-rule:evenodd;stroke-linejoin:round;stroke-miterlimit:2" viewBox="0 0 32 32" height="32" width="32"><path d="m370-80-16-128c-8.667-3.333-16.833-7.333-24.5-12a329.789 329.789 0 0 1-22.5-15l-119 50L78-375l103-78c-.667-4.667-1-9.167-1-13.5v-27c0-4.333.333-8.833 1-13.5L78-585l110-190 119 50a272.7 272.7 0 0 1 23-15c8-4.667 16-8.667 24-12l16-128h220l16 128c8.667 3.333 16.833 7.333 24.5 12a329.789 329.789 0 0 1 22.5 15l119-50 110 190-103 78c.667 4.667 1 9.167 1 13.5v27c0 4.333-.667 8.833-2 13.5l103 78-110 190-118-50a272.7 272.7 0 0 1-23 15c-8 4.667-16 8.667-24 12L590-80H370Zm112-260c38.667 0 71.667-13.667 99-41s41-60.333 41-99-13.667-71.667-41-99-60.333-41-99-41c-39.333 0-72.5 13.667-99.5 41S342-518.667 342-480s13.5 71.667 40.5 99 60.167 41 99.5 41Z" style="fill:#333;fill-rule:nonzero" transform="matrix(.0398 0 0 .04 -3.104 35.2)"/></svg>