<svg xmlns:xlink="http://www.w3.org/1999/xlink" width="20" xmlns="http://www.w3.org/2000/svg" height="20" id="screenshot-db15cf86-6f9e-8025-8002-bbab9ed6600f" viewBox="0 0 20 20" style="-webkit-print-color-adjust: exact;" fill="none" version="1.1"><g id="shape-db15cf86-6f9e-8025-8002-bbab9ed6600f" rx="0" ry="0" style="fill: rgb(0, 0, 0);"><g id="shape-db15cf86-6f9e-8025-8002-bbab9ed66011"><g class="fills" id="fills-db15cf86-6f9e-8025-8002-bbab9ed66011"><path rx="0" ry="0" d="M8.333,14.167L8.333,11.667L2.500,11.667L2.500,8.333L8.333,8.333L8.333,5.833L12.500,10.000L8.333,14.167ZM8.333,1.667L15.833,1.667C16.754,1.667,17.500,2.413,17.500,3.333L17.500,16.667C17.500,17.587,16.754,18.333,15.833,18.333L8.333,18.333C7.413,18.333,6.667,17.587,6.667,16.667L6.667,15.000L8.333,15.000L8.333,16.667L15.833,16.667L15.833,3.333L8.333,3.333L8.333,5.000L6.667,5.000L6.667,3.333C6.667,2.413,7.413,1.667,8.333,1.667ZZ" style="fill: rgb(255, 255, 255); fill-opacity: 1;"/></g></g></g></svg>