<svg xmlns:xlink="http://www.w3.org/1999/xlink" width="18" xmlns="http://www.w3.org/2000/svg" height="18" id="screenshot-db15cf86-6f9e-8025-8002-bbab9ed697ca" viewBox="0 0 18 18" style="-webkit-print-color-adjust: exact;" fill="none" version="1.1"><g id="shape-db15cf86-6f9e-8025-8002-bbab9ed697ca" rx="0" ry="0" style="fill: rgb(0, 0, 0);"><g id="shape-db15cf86-6f9e-8025-8002-bbab9ed697cc"><g class="fills" id="fills-db15cf86-6f9e-8025-8002-bbab9ed697cc"><path rx="0" ry="0" d="M7.125,2.250C9.817,2.250,12.000,4.433,12.000,7.125C12.000,8.332,11.557,9.443,10.830,10.297L11.033,10.500L11.625,10.500L15.375,14.250L14.250,15.375L10.500,11.625L10.500,11.032L10.297,10.830C9.443,11.557,8.332,12.000,7.125,12.000C4.433,12.000,2.250,9.817,2.250,7.125C2.250,4.433,4.433,2.250,7.125,2.250ZM7.125,3.750C5.250,3.750,3.750,5.250,3.750,7.125C3.750,9.000,5.250,10.500,7.125,10.500C9.000,10.500,10.500,9.000,10.500,7.125C10.500,5.250,9.000,3.750,7.125,3.750ZZ" style="fill: rgb(118, 118, 118); fill-opacity: 1;"/></g></g></g></svg>