<svg xmlns:xlink="http://www.w3.org/1999/xlink" width="20" xmlns="http://www.w3.org/2000/svg" height="20" id="screenshot-db15cf86-6f9e-8025-8002-bbab9ed6601a" viewBox="0 0 20 20" style="-webkit-print-color-adjust: exact;" fill="none" version="1.1"><g id="shape-db15cf86-6f9e-8025-8002-bbab9ed6601a" height="48" width="48" rx="0" ry="0" style="fill: rgb(0, 0, 0);"><g id="shape-db15cf86-6f9e-8025-8002-bbab9ed6601c"><g class="fills" id="fills-db15cf86-6f9e-8025-8002-bbab9ed6601c"><path rx="0" ry="0" d="M4.708,16.667C4.319,16.667,3.993,16.535,3.729,16.271C3.465,16.007,3.333,15.681,3.333,15.292C3.333,14.903,3.465,14.576,3.729,14.313C3.993,14.049,4.319,13.917,4.708,13.917C5.097,13.917,5.424,14.049,5.688,14.313C5.951,14.576,6.083,14.903,6.083,15.292C6.083,15.681,5.951,16.007,5.688,16.271C5.424,16.535,5.097,16.667,4.708,16.667ZZM4.708,11.375C4.319,11.375,3.993,11.243,3.729,10.979C3.465,10.715,3.333,10.389,3.333,10.000C3.333,9.611,3.465,9.285,3.729,9.021C3.993,8.757,4.319,8.625,4.708,8.625C5.097,8.625,5.424,8.757,5.688,9.021C5.951,9.285,6.083,9.611,6.083,10.000C6.083,10.389,5.951,10.715,5.688,10.979C5.424,11.243,5.097,11.375,4.708,11.375ZZM4.708,6.083C4.319,6.083,3.993,5.951,3.729,5.688C3.465,5.424,3.333,5.097,3.333,4.708C3.333,4.319,3.465,3.993,3.729,3.729C3.993,3.465,4.319,3.333,4.708,3.333C5.097,3.333,5.424,3.465,5.688,3.729C5.951,3.993,6.083,4.319,6.083,4.708C6.083,5.097,5.951,5.424,5.688,5.688C5.424,5.951,5.097,6.083,4.708,6.083ZZM10.000,11.375C9.611,11.375,9.285,11.243,9.021,10.979C8.757,10.715,8.625,10.389,8.625,10.000C8.625,9.611,8.757,9.285,9.021,9.021C9.285,8.757,9.611,8.625,10.000,8.625C10.389,8.625,10.715,8.757,10.979,9.021C11.243,9.285,11.375,9.611,11.375,10.000L10.000,11.375ZZM10.000,6.083C9.611,6.083,9.285,5.951,9.021,5.688C8.757,5.424,8.625,5.097,8.625,4.708C8.625,4.319,8.757,3.993,9.021,3.729C9.285,3.465,9.611,3.333,10.000,3.333C10.389,3.333,10.715,3.465,10.979,3.729C11.243,3.993,11.375,4.319,11.375,4.708C11.375,5.097,11.243,5.424,10.979,5.688C10.715,5.951,10.389,6.083,10.000,6.083ZZM9.167,16.667L9.167,15.313L14.229,10.250L15.583,11.604L10.521,16.667L9.167,16.667ZZM15.292,6.083C14.903,6.083,14.576,5.951,14.313,5.688C14.049,5.424,13.917,5.097,13.917,4.708C13.917,4.319,14.049,3.993,14.313,3.729C14.576,3.465,14.903,3.333,15.292,3.333C15.681,3.333,16.007,3.465,16.271,3.729C16.535,3.993,16.667,4.319,16.667,4.708C16.667,5.097,16.535,5.424,16.271,5.688C16.007,5.951,15.681,6.083,15.292,6.083ZZM16.125,11.063L14.771,9.708L15.292,9.188C15.403,9.076,15.542,9.017,15.708,9.010C15.875,9.003,16.014,9.056,16.125,9.167L16.667,9.708C16.778,9.819,16.830,9.958,16.823,10.125C16.816,10.292,16.757,10.431,16.646,10.542L16.125,11.063ZZ" style="fill: rgb(0, 123, 189); fill-opacity: 1;"/></g></g></g></svg>
