<svg xmlns:xlink="http://www.w3.org/1999/xlink" width="20" xmlns="http://www.w3.org/2000/svg" height="20" id="screenshot-db15cf86-6f9e-8025-8002-bbab9ed697d7" viewBox="0 0 20 20" style="-webkit-print-color-adjust: exact;" fill="none" version="1.1"><g id="shape-db15cf86-6f9e-8025-8002-bbab9ed697d7" rx="0" ry="0" style="fill: rgb(0, 0, 0);"><g id="shape-db15cf86-6f9e-8025-8002-bbab9ed697d9"><g class="fills" id="fills-db15cf86-6f9e-8025-8002-bbab9ed697d9"><path rx="0" ry="0" d="M10.000,1.667C5.398,1.667,1.667,5.398,1.667,10.000C1.667,14.602,5.398,18.333,10.000,18.333C14.602,18.333,18.333,14.602,18.333,10.000C18.333,5.398,14.602,1.667,10.000,1.667ZM10.000,3.333C13.682,3.333,16.667,6.318,16.667,10.000C16.667,13.682,13.682,16.667,10.000,16.667C6.318,16.667,3.333,13.682,3.333,10.000C3.333,6.318,6.318,3.333,10.000,3.333ZM5.833,8.333L10.000,12.500L14.167,8.333L5.833,8.333ZZ" style="fill: rgb(255, 255, 255); fill-opacity: 1;"/></g></g></g></svg>