<svg xmlns:xlink="http://www.w3.org/1999/xlink" width="20" xmlns="http://www.w3.org/2000/svg" height="20" id="screenshot-db15cf86-6f9e-8025-8002-bbab9ed6fe34" viewBox="0 0 20 20" style="-webkit-print-color-adjust: exact;" fill="none" version="1.1"><g id="shape-db15cf86-6f9e-8025-8002-bbab9ed6fe34" rx="0" ry="0" style="fill: rgb(0, 0, 0);"><g id="shape-db15cf86-6f9e-8025-8002-bbab9ed6fe36"><g class="fills" id="fills-db15cf86-6f9e-8025-8002-bbab9ed6fe36"><path rx="0" ry="0" d="M18.333,7.500L18.333,5.833L16.667,5.833L16.667,4.167C16.667,3.246,15.920,2.500,15.000,2.500L3.333,2.500C2.413,2.500,1.667,3.246,1.667,4.167L1.667,15.833C1.667,16.754,2.413,17.500,3.333,17.500L15.000,17.500C15.920,17.500,16.667,16.754,16.667,15.833L16.667,14.167L18.333,14.167L18.333,12.500L16.667,12.500L16.667,10.833L18.333,10.833L18.333,9.167L16.667,9.167L16.667,7.500L18.333,7.500ZM15.000,15.833L3.333,15.833L3.333,4.167L15.000,4.167L15.000,15.833ZM5.000,10.833L9.167,10.833L9.167,14.167L5.000,14.167L5.000,10.833ZM10.000,5.833L13.333,5.833L13.333,8.333L10.000,8.333L10.000,5.833ZM5.000,5.833L9.167,5.833L9.167,10.000L5.000,10.000L5.000,5.833ZM10.000,9.167L13.333,9.167L13.333,14.167L10.000,14.167L10.000,9.167ZZ"/></g></g></g></svg>