<svg xmlns:xlink="http://www.w3.org/1999/xlink" width="20" xmlns="http://www.w3.org/2000/svg" height="20" id="screenshot-db15cf86-6f9e-8025-8002-bbab9ed6fe2f" viewBox="0 0 20 20" style="-webkit-print-color-adjust: exact;" fill="none" version="1.1"><g id="shape-db15cf86-6f9e-8025-8002-bbab9ed6fe2f" rx="0" ry="0" style="fill: rgb(0, 0, 0);"><g id="shape-db15cf86-6f9e-8025-8002-bbab9ed6fe31"><g class="fills" id="fills-db15cf86-6f9e-8025-8002-bbab9ed6fe31"><path rx="0" ry="0" d="M10.833,7.500L15.417,7.500L10.833,2.917L10.833,7.500ZM5.000,1.667L11.667,1.667L16.667,6.667L16.667,16.667C16.667,17.587,15.920,18.333,15.000,18.333L5.000,18.333C4.075,18.333,3.333,17.583,3.333,16.667L3.333,3.333C3.333,2.408,4.075,1.667,5.000,1.667ZM12.500,15.000L12.500,13.333L5.000,13.333L5.000,15.000L12.500,15.000ZM15.000,11.667L15.000,10.000L5.000,10.000L5.000,11.667L15.000,11.667ZZ"/></g></g></g></svg>