<svg xmlns="http://www.w3.org/2000/svg" height="20" viewBox="0 -960 960 960" width="20"><path d="m392-357 50-51-69-69 69-69-50-51-120 120 120 120Zm176 0 120-120-120-120-50 51 69 69-69 69 50 51ZM228-110q-48.675 0-83.337-34.663Q110-179.325 110-228v-504q0-48.675 34.663-83.338Q179.325-850 228-850h138q15-33 45.5-52.5T480-922q38 0 68.5 19.5T594-850h138q48.675 0 83.338 34.662Q850-780.675 850-732v504q0 48.675-34.662 83.337Q780.675-110 732-110H228Zm0-118h504v-504H228v504Zm252-532q13.867 0 22.933-9.067Q512-778.133 512-792q0-13.867-9.067-22.933Q493.867-824 480-824q-13.867 0-22.933 9.067Q448-805.867 448-792q0 13.867 9.067 22.933Q466.133-760 480-760ZM228-228v-504 504Z"/></svg>
