<svg xmlns:xlink="http://www.w3.org/1999/xlink" width="20" xmlns="http://www.w3.org/2000/svg" height="20" id="screenshot-db15cf86-6f9e-8025-8002-bbab9ed6fe2a" viewBox="0 0 20 20" style="-webkit-print-color-adjust: exact;" fill="none" version="1.1"><g id="shape-db15cf86-6f9e-8025-8002-bbab9ed6fe2a" rx="0" ry="0" style="fill: rgb(0, 0, 0);"><g id="shape-db15cf86-6f9e-8025-8002-bbab9ed6fe2c"><g class="fills" id="fills-db15cf86-6f9e-8025-8002-bbab9ed6fe2c"><path rx="0" ry="0" d="M9.167,0.833L2.500,0.833C1.583,0.833,0.833,1.583,0.833,2.500L0.833,12.500L3.333,10.000L7.500,10.000L7.500,9.167C7.500,7.333,8.992,5.833,10.833,5.833L10.833,2.500C10.833,1.583,10.083,0.833,9.167,0.833ZM9.167,3.333L7.917,3.333C7.633,4.325,7.117,5.250,6.400,6.050L6.383,6.067L7.433,7.108L7.125,7.950L5.833,6.667L3.750,8.750L3.175,8.142L5.283,6.067C4.767,5.492,4.350,4.850,4.050,4.167L4.875,4.167C5.133,4.667,5.450,5.142,5.833,5.567C6.433,4.900,6.867,4.142,7.142,3.333L2.500,3.333L2.500,2.500L5.417,2.500L5.417,1.667L6.250,1.667L6.250,2.500L9.167,2.500L9.167,3.333ZM17.500,7.500L10.833,7.500C9.917,7.500,9.167,8.250,9.167,9.167L9.167,15.000C9.167,15.917,9.917,16.667,10.833,16.667L16.667,16.667L19.167,19.167L19.167,9.167C19.167,8.250,18.417,7.500,17.500,7.500ZM16.358,15.833L15.650,13.958L12.683,13.958L11.983,15.833L10.733,15.833L13.542,8.333L14.792,8.333L17.608,15.833L16.358,15.833ZM14.167,10.000L15.183,12.708L13.158,12.708L14.167,10.000ZZ"/></g></g></g></svg>