<svg width="20" height="20" version="1.1" viewBox="0 0 24 24" xmlns="http://www.w3.org/2000/svg"><path d="m20 8h-2.81c-0.45-0.8-1.07-1.5-1.82-2l1.63-1.59-1.41-1.41-2.17 2.17c-0.46-0.11-0.92-0.17-1.42-0.17s-0.95 0.06-1.41 0.17l-2.18-2.17-1.41 1.41 1.62 1.59c-0.75 0.5-1.36 1.21-1.81 2h-2.81v2h2.09c-0.06 0.33-0.09 0.66-0.09 1v1h-2v2h2v1c0 0.34 0.03 0.67 0.09 1h-2.09v2h2.81c1.66 2.87 5.33 3.84 8.19 2.18 0.91-0.52 1.67-1.28 2.19-2.18h2.81v-2h-2.09c0.06-0.33 0.09-0.66 0.09-1v-1h2v-2h-2v-1c0-0.34-0.03-0.67-0.09-1h2.09v-2m-4 7a4 4 0 0 1-4 4 4 4 0 0 1-4-4v-4a4 4 0 0 1 4-4 4 4 0 0 1 4 4v4m-2-5v2h-4v-2h4m-4 4h4v2h-4z" fill="#fff"/></svg>
