<svg xmlns:xlink="http://www.w3.org/1999/xlink" width="20" xmlns="http://www.w3.org/2000/svg" height="20" id="screenshot-db15cf86-6f9e-8025-8002-bbab9ed6fd53" viewBox="0 0 20 20" style="-webkit-print-color-adjust: exact;" fill="none" version="1.1"><g id="shape-db15cf86-6f9e-8025-8002-bbab9ed6fd53" rx="0" ry="0" style="fill: rgb(0, 0, 0);"><g id="shape-db15cf86-6f9e-8025-8002-bbab9ed6fd55"><g class="fills" id="fills-db15cf86-6f9e-8025-8002-bbab9ed6fd55"><path rx="0" ry="0" d="M11.667,10.000L8.333,10.000L8.333,8.333L11.667,8.333M11.667,13.333L8.333,13.333L8.333,11.667L11.667,11.667M16.667,6.667L14.325,6.667C13.950,6.017,13.433,5.458,12.808,5.033L14.167,3.675L12.992,2.500L11.183,4.308C10.800,4.217,10.417,4.167,10.000,4.167C9.583,4.167,9.200,4.217,8.825,4.308L7.008,2.500L5.833,3.675L7.183,5.033C6.567,5.458,6.050,6.017,5.675,6.667L3.333,6.667L3.333,8.333L5.075,8.333C5.033,8.608,5.000,8.883,5.000,9.167L5.000,10.000L3.333,10.000L3.333,11.667L5.000,11.667L5.000,12.500C5.000,12.783,5.033,13.058,5.075,13.333L3.333,13.333L3.333,15.000L5.675,15.000C6.542,16.492,8.150,17.500,10.000,17.500C11.850,17.500,13.458,16.492,14.325,15.000L16.667,15.000L16.667,13.333L14.925,13.333C14.967,13.058,15.000,12.783,15.000,12.500L15.000,11.667L16.667,11.667L16.667,10.000L15.000,10.000L15.000,9.167C15.000,8.883,14.967,8.608,14.925,8.333L16.667,8.333L16.667,6.667ZZ" style="fill: rgb(0, 123, 189); fill-opacity: 1;"/></g></g></g></svg>
