<svg width="20" height="20" fill="none" style="-webkit-print-color-adjust:exact" version="1.1" viewBox="0 0 20 20" xmlns="http://www.w3.org/2000/svg"><g rx="0" ry="0" fill="#000"><g class="fills"><path rx="0" ry="0" d="m11.667 10h-3.334v-1.667h3.334m0 5h-3.334v-1.666h3.334m5-5h-2.342c-0.375-0.65-0.892-1.209-1.517-1.634l1.359-1.358-1.175-1.175-1.809 1.808c-0.383-0.091-0.766-0.141-1.183-0.141s-0.8 0.05-1.175 0.141l-1.817-1.808-1.175 1.175 1.35 1.358c-0.616 0.425-1.133 0.984-1.508 1.634h-2.342v1.666h1.742c-0.042 0.275-0.075 0.55-0.075 0.834v0.833h-1.667v1.667h1.667v0.833c0 0.283 0.033 0.558 0.075 0.833h-1.742v1.667h2.342c0.867 1.492 2.475 2.5 4.325 2.5s3.458-1.008 4.325-2.5h2.342v-1.667h-1.742c0.042-0.275 0.075-0.55 0.075-0.833v-0.833h1.667v-1.667h-1.667v-0.833c0-0.284-0.033-0.559-0.075-0.834h1.742v-1.666z" fill="#007bbd"/></g></g></svg>
