<svg width="20" height="20" fill="none" style="-webkit-print-color-adjust:exact" version="1.1" viewBox="0 0 20 20" xmlns="http://www.w3.org/2000/svg"><g rx="0" ry="0" fill="#000"><g class="fills"><path rx="0" ry="0" d="m3.333 1.667h13.334c0.92 0 1.666 0.746 1.666 1.666v10c0 0.921-0.746 1.667-1.666 1.667h-5.084l-3.083 3.092c-0.167 0.158-0.375 0.241-0.583 0.241h-0.417c-0.46 0-0.833-0.373-0.833-0.833v-2.5h-3.334c-0.92 0-1.666-0.746-1.666-1.667v-10c0-0.925 0.75-1.666 1.666-1.666zm6.825 2.916c-0.741 0-1.333 0.15-1.783 0.45-0.458 0.3-0.692 0.8-0.65 1.375h1.642c0-0.233 0.083-0.408 0.216-0.525 0.167-0.116 0.35-0.175 0.575-0.175 0.259 0 0.484 0.067 0.634 0.217 0.15 0.142 0.225 0.325 0.225 0.575 0 0.233-0.067 0.442-0.184 0.617-0.141 0.183-0.316 0.333-0.533 0.45-0.433 0.266-0.717 0.5-0.892 0.7-0.158 0.2-0.241 0.483-0.241 0.9h1.666c0-0.234 0.042-0.417 0.117-0.567 0.075-0.142 0.217-0.267 0.433-0.392 0.384-0.175 0.7-0.408 0.942-0.708 0.242-0.308 0.367-0.633 0.367-1 0-0.583-0.225-1.05-0.675-1.4-0.45-0.342-1.075-0.517-1.859-0.517zm-0.991 5.417v1.667h1.666v-1.667h-1.666z" fill="#007bbd"/></g></g></svg>
