<svg xmlns:xlink="http://www.w3.org/1999/xlink" width="20" xmlns="http://www.w3.org/2000/svg" height="20" id="screenshot-db15cf86-6f9e-8025-8002-bbab9ed6fd49" viewBox="0 0 20 20" style="-webkit-print-color-adjust: exact;" fill="none" version="1.1"><g id="shape-db15cf86-6f9e-8025-8002-bbab9ed6fd49" rx="0" ry="0" style="fill: rgb(0, 0, 0);"><g id="shape-db15cf86-6f9e-8025-8002-bbab9ed6fd4b"><g class="fills" id="fills-db15cf86-6f9e-8025-8002-bbab9ed6fd4b"><path rx="0" ry="0" d="M3.333,1.667L16.667,1.667C17.587,1.667,18.333,2.413,18.333,3.333L18.333,13.333C18.333,14.254,17.587,15.000,16.667,15.000L11.583,15.000L8.500,18.092C8.333,18.250,8.125,18.333,7.917,18.333L7.917,18.333L7.500,18.333C7.040,18.333,6.667,17.960,6.667,17.500L6.667,15.000L3.333,15.000C2.413,15.000,1.667,14.254,1.667,13.333L1.667,3.333C1.667,2.408,2.417,1.667,3.333,1.667ZM10.158,4.583C9.417,4.583,8.825,4.733,8.375,5.033C7.917,5.333,7.683,5.833,7.725,6.408L9.367,6.408C9.367,6.175,9.450,6.000,9.583,5.883C9.750,5.767,9.933,5.708,10.158,5.708C10.417,5.708,10.642,5.775,10.792,5.925C10.942,6.067,11.017,6.250,11.017,6.500C11.017,6.733,10.950,6.942,10.833,7.117C10.692,7.300,10.517,7.450,10.300,7.567C9.867,7.833,9.583,8.067,9.408,8.267C9.250,8.467,9.167,8.750,9.167,9.167L10.833,9.167C10.833,8.933,10.875,8.750,10.950,8.600C11.025,8.458,11.167,8.333,11.383,8.208C11.767,8.033,12.083,7.800,12.325,7.500C12.567,7.192,12.692,6.867,12.692,6.500C12.692,5.917,12.467,5.450,12.017,5.100C11.567,4.758,10.942,4.583,10.158,4.583ZM9.167,10.000L9.167,11.667L10.833,11.667L10.833,10.000L9.167,10.000ZZ" style="fill: rgb(255, 255, 255); fill-opacity: 1;"/></g></g></g></svg>
