<svg width="20px" height="20px" fill="#007bbd" version="1.1" viewBox="0 -960 960 960" xmlns="http://www.w3.org/2000/svg"><path d="m429.29 0v-114.29q-72.858-15.714-125-65.714-52.143-50-73.572-124.29l105.72-42.857q11.429 51.429 57.858 92.143 46.429 40.714 96.429 40.714 55.715 0 91.429-28.571 35.715-28.571 35.715-74.286 0-42.857-32.143-71.429-32.143-28.571-113.57-57.143-111.43-40-162.86-87.857t-51.429-123.57q0-71.429 46.429-122.86 46.429-51.429 125-67.143v-112.86h102.86v112.86q102.86 17.143 137.86 78.571t36.429 64.286l-100 41.429q-11.429-37.143-45.715-61.429-34.286-24.286-75.715-24.286-50 0-82.858 25.714-32.857 25.714-32.857 62.857t35.715 63.571 132.86 59.286q100 32.857 145.72 85.714 45.715 52.857 45.715 134.29t-52.858 137.14q-52.858 55.714-144.29 70v110z" stroke-width="1.4286"/></svg>
