<svg width="20px" height="20px" fill="#fff" version="1.1" viewBox="0 -960 960 960" xmlns="http://www.w3.org/2000/svg"><path d="m429.26 0v-114.29q-72.857-15.714-125-65.714t-73.571-124.29l105.71-42.857q11.429 51.429 57.857 92.143t96.429 40.714q55.714 0 91.429-28.571 35.714-28.571 35.714-74.286 0-42.857-32.143-71.429t-113.57-57.143q-111.43-40-162.86-87.857t-51.429-123.57q0-71.429 46.429-122.86t125-67.143v-112.86h102.86v112.86q102.86 17.143 137.86 78.571t36.429 64.286l-100 41.429q-11.429-37.143-45.714-61.429-34.286-24.286-75.714-24.286-50 0-82.857 25.714-32.857 25.714-32.857 62.857t35.714 63.571q35.714 26.429 132.86 59.286 100 32.857 145.71 85.714 45.714 52.857 45.714 134.29t-52.857 137.14q-52.857 55.714-144.29 70v110z" stroke-width="1.4286"/></svg>
