<svg width="20" height="20" fill="none" style="-webkit-print-color-adjust:exact" version="1.1" viewBox="0 0 20 20" xmlns="http://www.w3.org/2000/svg"><g rx="0" ry="0" fill="#000"><g class="fills"><path rx="0" ry="0" d="m16.667 16.667c0 0.92-0.747 1.666-1.667 1.666h-11.667c-0.92 0-1.666-0.746-1.666-1.666v-11.667c0-0.92 0.746-1.667 1.666-1.667h4.584c-0.25 0.667-0.417 1.334-0.417 2.084 0 3 2.417 5.416 5.417 5.416 0.666 0 1.25-0.083 1.75-0.333l2 2v4.167zm-0.584-9.25c0.334-0.584 0.584-1.25 0.584-2 0-2.084-1.667-3.75-3.75-3.75-2.084 0-3.75 1.666-3.75 3.75 0 2.083 1.666 3.75 3.75 3.75 0.75 0 1.416-0.25 2-0.584l2.583 2.584 1.167-1.167-2.584-2.583zm-3.166 0.083c-1.167 0-2.084-0.917-2.084-2.083 0-1.167 0.917-2.084 2.084-2.084 1.166 0 2.083 0.917 2.083 2.084 0 1.166-0.917 2.083-2.083 2.083z" fill="#007bbd"/></g></g></svg>
