<svg xmlns:xlink="http://www.w3.org/1999/xlink" width="20" xmlns="http://www.w3.org/2000/svg" height="20" id="screenshot-db15cf86-6f9e-8025-8002-bbab9ed6fd4e" viewBox="0 0 20 20" style="-webkit-print-color-adjust: exact;" fill="none" version="1.1"><g id="shape-db15cf86-6f9e-8025-8002-bbab9ed6fd4e" rx="0" ry="0" style="fill: rgb(0, 0, 0);"><g id="shape-db15cf86-6f9e-8025-8002-bbab9ed6fd50"><g class="fills" id="fills-db15cf86-6f9e-8025-8002-bbab9ed6fd50"><path rx="0" ry="0" d="M16.667,16.667C16.667,17.587,15.920,18.333,15.000,18.333L3.333,18.333C2.413,18.333,1.667,17.587,1.667,16.667L1.667,5.000C1.667,4.080,2.413,3.333,3.333,3.333L7.917,3.333C7.667,4.000,7.500,4.667,7.500,5.417C7.500,8.417,9.917,10.833,12.917,10.833C13.583,10.833,14.167,10.750,14.667,10.500L16.667,12.500L16.667,16.667ZM16.083,7.417C16.417,6.833,16.667,6.167,16.667,5.417C16.667,3.333,15.000,1.667,12.917,1.667C10.833,1.667,9.167,3.333,9.167,5.417C9.167,7.500,10.833,9.167,12.917,9.167C13.667,9.167,14.333,8.917,14.917,8.583L17.500,11.167L18.667,10.000L16.083,7.417ZM12.917,7.500C11.750,7.500,10.833,6.583,10.833,5.417C10.833,4.250,11.750,3.333,12.917,3.333C14.083,3.333,15.000,4.250,15.000,5.417C15.000,6.583,14.083,7.500,12.917,7.500ZZ" style="fill: rgb(0, 123, 189); fill-opacity: 1;"/></g></g></g></svg>