<svg xmlns:xlink="http://www.w3.org/1999/xlink" width="20" xmlns="http://www.w3.org/2000/svg" height="20" id="screenshot-db15cf86-6f9e-8025-8002-bbab9ed697bf" viewBox="0 0 20 20" style="-webkit-print-color-adjust: exact;" fill="none" version="1.1"><g id="shape-db15cf86-6f9e-8025-8002-bbab9ed697bf" rx="0" ry="0" style="fill: rgb(0, 0, 0);"><g id="shape-db15cf86-6f9e-8025-8002-bbab9ed6fe0c"><g class="fills" id="fills-db15cf86-6f9e-8025-8002-bbab9ed6fe0c"><path rx="0" ry="0" d="M5.000,1.667C6.381,1.667,7.500,2.786,7.500,4.167C7.500,5.233,6.825,6.150,5.883,6.508C5.958,6.892,6.158,7.358,6.667,8.025C7.500,9.100,9.167,10.692,10.000,11.808C10.833,10.692,12.500,9.100,13.333,8.025C13.842,7.358,14.042,6.892,14.117,6.508C13.175,6.150,12.500,5.233,12.500,4.167C12.500,2.786,13.619,1.667,15.000,1.667C16.381,1.667,17.500,2.786,17.500,4.167C17.500,5.267,16.783,6.208,15.792,6.542C15.725,6.975,15.533,7.500,15.000,8.192C14.167,9.308,12.500,10.900,11.667,11.983C11.158,12.642,10.958,13.108,10.883,13.492C11.825,13.850,12.500,14.767,12.500,15.833C12.500,17.214,11.381,18.333,10.000,18.333C8.619,18.333,7.500,17.214,7.500,15.833C7.500,14.767,8.175,13.850,9.117,13.492C9.042,13.108,8.842,12.642,8.333,11.983C7.500,10.900,5.833,9.308,5.000,8.192C4.467,7.500,4.275,6.975,4.208,6.542C3.217,6.208,2.500,5.267,2.500,4.167C2.500,2.786,3.619,1.667,5.000,1.667ZM5.000,3.333C4.540,3.333,4.167,3.706,4.167,4.167C4.167,4.627,4.540,5.000,5.000,5.000C5.460,5.000,5.833,4.627,5.833,4.167C5.833,3.706,5.460,3.333,5.000,3.333ZM15.000,3.333C14.540,3.333,14.167,3.706,14.167,4.167C14.167,4.627,14.540,5.000,15.000,5.000C15.460,5.000,15.833,4.627,15.833,4.167C15.833,3.706,15.460,3.333,15.000,3.333ZM10.000,15.000C9.540,15.000,9.167,15.373,9.167,15.833C9.167,16.294,9.540,16.667,10.000,16.667C10.460,16.667,10.833,16.294,10.833,15.833C10.833,15.373,10.460,15.000,10.000,15.000ZZ" style="fill: rgb(0, 123, 189); fill-opacity: 1;"/></g></g></g></svg>