<svg width="20" height="20" fill="none" style="-webkit-print-color-adjust:exact" version="1.1" viewBox="0 0 20 20" xmlns="http://www.w3.org/2000/svg"><g rx="0" ry="0" fill="#000"><g class="fills"><path rx="0" ry="0" d="m5 1.667c1.381 0 2.5 1.119 2.5 2.5 0 1.066-0.675 1.983-1.617 2.341 0.075 0.384 0.275 0.85 0.784 1.517 0.833 1.075 2.5 2.667 3.333 3.783 0.833-1.116 2.5-2.708 3.333-3.783 0.509-0.667 0.709-1.133 0.784-1.517-0.942-0.358-1.617-1.275-1.617-2.341 0-1.381 1.119-2.5 2.5-2.5s2.5 1.119 2.5 2.5c0 1.1-0.717 2.041-1.708 2.375-0.067 0.433-0.259 0.958-0.792 1.65-0.833 1.116-2.5 2.708-3.333 3.791-0.509 0.659-0.709 1.125-0.784 1.509 0.942 0.358 1.617 1.275 1.617 2.341 0 1.381-1.119 2.5-2.5 2.5s-2.5-1.119-2.5-2.5c0-1.066 0.675-1.983 1.617-2.341-0.075-0.384-0.275-0.85-0.784-1.509-0.833-1.083-2.5-2.675-3.333-3.791-0.533-0.692-0.725-1.217-0.792-1.65-0.991-0.334-1.708-1.275-1.708-2.375 0-1.381 1.119-2.5 2.5-2.5zm0 1.666c-0.46 0-0.833 0.373-0.833 0.834 0 0.46 0.373 0.833 0.833 0.833s0.833-0.373 0.833-0.833c0-0.461-0.373-0.834-0.833-0.834zm10 0c-0.46 0-0.833 0.373-0.833 0.834 0 0.46 0.373 0.833 0.833 0.833s0.833-0.373 0.833-0.833c0-0.461-0.373-0.834-0.833-0.834zm-5 11.667c-0.46 0-0.833 0.373-0.833 0.833 0 0.461 0.373 0.834 0.833 0.834s0.833-0.373 0.833-0.834c0-0.46-0.373-0.833-0.833-0.833z" fill="#fff"/></g></g></svg>
