<svg xmlns:xlink="http://www.w3.org/1999/xlink" width="15" xmlns="http://www.w3.org/2000/svg" height="15" id="screenshot-db15cf86-6f9e-8025-8002-bbab9ed6fe0e" viewBox="-6886.5 5170.5 15 15" style="-webkit-print-color-adjust: exact;" fill="none" version="1.1"><g id="shape-db15cf86-6f9e-8025-8002-bbab9ed6fe0e"><g class="fills" id="fills-db15cf86-6f9e-8025-8002-bbab9ed6fe0e"><path rx="0" ry="0" d="M-6877.333,5182.167L-6883.167,5182.167L-6883.167,5180.500L-6877.333,5180.500M-6874.833,5178.833L-6883.167,5178.833L-6883.167,5177.167L-6874.833,5177.167M-6874.833,5175.500L-6883.167,5175.500L-6883.167,5173.833L-6874.833,5173.833M-6873.167,5170.500L-6884.833,5170.500C-6885.758,5170.500,-6886.500,5171.242,-6886.500,5172.167L-6886.500,5183.833C-6886.500,5184.754,-6885.754,5185.500,-6884.833,5185.500L-6873.167,5185.500C-6872.246,5185.500,-6871.500,5184.754,-6871.500,5183.833L-6871.500,5172.167C-6871.500,5171.242,-6872.250,5170.500,-6873.167,5170.500ZZ" style="fill: rgb(255, 255, 255); fill-opacity: 1;"/></g></g></svg>
